<svg xmlns="http://www.w3.org/2000/svg" width="39" height="24" viewBox="0 0 39 24"><defs><style>.a,.c{fill:#845bb3;}.b{fill:none;}.c{font-size:16px;font-family:Nunito-Bold, Nunito;font-weight:700;}</style></defs><g transform="translate(-183.801 -280.63)"><path class="a" d="M193.333,298.63a2.736,2.736,0,0,0-2.733,2.733,2.7,2.7,0,0,0,.8,1.931,2.732,2.732,0,1,0,1.931-4.664Zm1.367,2.742a1.362,1.362,0,1,1,0-.009Zm8.2-2.742a2.736,2.736,0,0,0-2.733,2.733,2.7,2.7,0,0,0,.8,1.931,2.732,2.732,0,1,0,1.93-4.664Zm0,4.109a1.367,1.367,0,1,1,1.367-1.367A1.365,1.365,0,0,1,202.9,302.739Z" transform="translate(-0.7 -2.333)"/><path class="a" d="M206.3,286.047a.592.592,0,0,1-.026.171l-2.05,8.2a.685.685,0,0,1-.658.512h-12.3a.687.687,0,0,1-.666-.512l-2.358-9.439L188,284h-1.512a.683.683,0,1,1,0-1.367h2.05a.683.683,0,0,1,.658.521l.461,1.828.094.384h15.871A.685.685,0,0,1,206.3,286.047Z"/></g><rect class="b" width="24" height="24"/><text class="c" transform="translate(29 17)"><tspan x="0" y="0">1</tspan></text></svg>