<svg xmlns="http://www.w3.org/2000/svg" width="24" height="24" viewBox="0 0 24 24"><defs><style>.a{fill:none;}.b{fill:#5c6673;fill-rule:evenodd;}</style></defs><rect class="a" width="24" height="24"/><g transform="translate(3 3)"><path class="b" d="M10.5,10.5a1.183,1.183,0,0,1,1.674,0l4.556,4.556a1.184,1.184,0,1,1-1.673,1.674L10.5,12.17a1.183,1.183,0,0,1,0-1.674Z" transform="translate(1.861 1.861)"/><path class="b" d="M7.692,14.2A6.508,6.508,0,1,0,1.183,7.692,6.508,6.508,0,0,0,7.692,14.2Zm7.692-6.508A7.692,7.692,0,1,1,7.692,0a7.692,7.692,0,0,1,7.692,7.692Z" transform="translate(0)"/></g></svg>